<svg width="30" height="30" viewBox="0 0 30 30" fill="none" xmlns="http://www.w3.org/2000/svg">
<path d="M15 0C23.2843 0 30 6.71573 30 15C30 23.2843 23.2843 30 15 30C6.71573 30 0 23.2843 0 15C0 6.71573 6.71573 0 15 0ZM22.4678 9.81738C22.3584 8.89745 21.2429 9.09881 20.6221 9.30566C17.4313 10.5198 14.2724 11.8242 11.126 13.1514C9.29713 13.9616 7.3394 14.7676 5.58594 15.7334C4.73166 16.3589 6.18396 16.7724 7.1748 17.1826C8.2799 17.5222 9.56822 18.0421 10.6738 17.4336C12.8383 16.1902 14.8415 14.6892 16.8945 13.2744C17.2684 13.0351 18.4009 12.2561 18.0176 13.1816C16.5964 14.7358 15.0054 15.9909 13.5059 17.4688C12.98 17.896 12.4347 18.7553 13.0234 19.3535C14.8209 20.6119 16.6558 21.8298 18.4766 23.0596C19.2341 23.6643 20.4173 23.1755 20.584 22.2305C21.0674 19.3928 21.5633 16.555 21.9922 13.708C22.1611 12.4137 22.4078 11.1194 22.4678 9.81738Z" fill="#2D4549"/>
</svg>
