<svg width="31" height="31" viewBox="0 0 31 31" fill="none" xmlns="http://www.w3.org/2000/svg">
<path d="M20.5425 0.937134C28.9473 0.937172 30.937 2.9277 30.937 11.3326V20.5426C30.937 28.9474 28.9473 30.9371 20.5425 30.9371H11.3325C2.92764 30.9371 0.937057 28.9474 0.937012 20.5426V11.3326C0.937023 2.92766 2.92756 0.937153 11.3325 0.937134H20.5425ZM6.71729 10.444C6.0823 10.444 5.97613 10.7398 5.97607 11.0573C5.97607 11.6289 6.71742 14.5082 9.42725 18.319C11.2268 20.923 13.7885 22.3209 16.0962 22.3209C17.4932 22.3209 17.6625 22.0033 17.6626 21.4742V19.5045C17.6627 18.8697 17.7904 18.7643 18.2349 18.7643C18.5525 18.7644 19.1245 18.9335 20.4155 20.1823C21.8975 21.6642 22.1514 22.3414 22.9771 22.3414H25.1577C25.7927 22.3414 26.0886 22.0245 25.9194 21.4108C25.7289 20.7968 25.0092 19.9068 24.0776 18.8483C23.5695 18.2555 22.8076 17.5994 22.5747 17.2819C22.2572 16.8585 22.3419 16.6892 22.5747 16.3082C22.554 16.3075 25.2214 12.5393 25.4966 11.2692C25.6447 10.8035 25.4964 10.4646 24.8403 10.4645H22.6597C22.1092 10.4645 21.8547 10.7612 21.7065 11.0787C21.698 11.0993 20.5787 13.795 19.0181 15.5455C18.51 16.0536 18.2767 16.2233 18.0015 16.2233C17.8533 16.2231 17.6627 16.0538 17.6626 15.5885V11.2477C17.6625 10.6975 17.4935 10.444 17.0278 10.444H13.5981C13.2594 10.444 13.0474 10.6977 13.0474 10.9518C13.0475 11.4809 13.8307 11.6081 13.9155 13.0895V16.3082C13.9155 17.0067 13.7884 17.1334 13.5132 17.1334C12.7721 17.1331 10.9728 14.4026 9.89307 11.2906C9.68139 10.6768 9.46965 10.4441 8.91943 10.444H6.71729Z" fill="#D5EDF1"/>
</svg>
