<svg width="100" height="100" viewBox="0 0 100 100" fill="none" xmlns="http://www.w3.org/2000/svg">
<g id="sass">
<g id="sass_2">
<path id="Vector" d="M86.1077 56.1111C82.619 56.1294 79.587 56.9696 77.0481 58.2117C76.1165 56.3669 75.185 54.723 75.0206 53.5174C74.838 52.111 74.6188 51.2525 74.838 49.5721C75.0571 47.8917 76.0435 45.4989 76.0252 45.3163C76.0069 45.1336 75.806 44.2752 73.7968 44.2569C71.7876 44.2386 70.0524 44.6405 69.8515 45.1702C69.6506 45.6999 69.267 46.9054 69.0113 48.1474C68.6643 49.974 64.9929 56.4947 62.8924 59.9103C62.2166 58.577 61.6321 57.408 61.5042 56.4764C61.3216 55.07 61.1024 54.2115 61.3216 52.5311C61.5408 50.8507 62.5271 48.4579 62.5088 48.2753C62.4906 48.0926 62.2896 47.2342 60.2804 47.2159C58.2713 47.1976 56.536 47.5995 56.3351 48.1292C56.1342 48.6589 55.915 49.9009 55.4949 51.1064C55.0748 52.3119 50.1979 63.1981 48.9194 66.011C48.2618 67.4539 47.6956 68.6047 47.2938 69.3901C47.2938 69.3901 47.2755 69.4449 47.2207 69.5362C46.8736 70.212 46.6727 70.5773 46.6727 70.5773C46.6727 70.5773 46.6727 70.5773 46.6727 70.5956C46.3988 71.0887 46.1065 71.5454 45.9604 71.5454C45.8508 71.5454 45.6499 70.2303 45.9969 68.4403C46.7275 64.6593 48.4627 58.7779 48.4445 58.577C48.4445 58.4674 48.7733 57.4445 47.312 56.9148C45.8873 56.3851 45.3759 57.2619 45.248 57.2619C45.1202 57.2619 45.0288 57.5724 45.0288 57.5724C45.0288 57.5724 46.6179 50.9603 41.9968 50.9603C39.1109 50.9603 35.129 54.1202 33.1563 56.9696C31.9143 57.6454 29.2658 59.0884 26.4347 60.6409C25.357 61.2437 24.2428 61.8465 23.2017 62.4127C23.1286 62.3396 23.0556 62.2483 22.9825 62.1752C17.3933 56.2025 7.05511 51.9832 7.49348 43.9647C7.65786 41.0422 8.66246 33.3707 27.3479 24.0554C42.7274 16.4752 54.9652 18.5758 57.084 23.2334C60.1161 29.882 50.5267 42.2294 34.6358 44.0194C28.5717 44.6953 25.3936 42.3573 24.5899 41.4806C23.7497 40.5673 23.6218 40.5125 23.3113 40.6951C22.7999 40.9691 23.1286 41.7911 23.3113 42.266C23.7862 43.508 25.7406 45.6999 29.0466 46.7775C31.9691 47.7273 39.0743 48.257 47.6773 44.9327C57.3032 41.2066 64.8285 30.8501 62.6184 22.174C60.4083 13.3701 45.796 10.4659 31.9691 15.3793C23.7497 18.3018 14.8362 22.9047 8.42501 28.8957C0.808343 36.0192 -0.397172 42.2112 0.0959939 44.8049C1.86774 54.0106 14.5622 60.0017 19.64 64.4401C19.3842 64.5863 19.1468 64.7141 18.9459 64.8237C16.407 66.084 6.72633 71.1435 4.3153 76.4953C1.57549 82.5594 4.75367 86.9066 6.85419 87.4911C13.3749 89.2993 20.0783 86.0481 23.6766 80.6781C27.2749 75.3081 26.8365 68.3307 25.1744 65.1342C25.1561 65.0977 25.1378 65.0612 25.1013 65.0246C25.7589 64.6411 26.4347 64.2392 27.0922 63.8557C28.3891 63.0885 29.6677 62.3762 30.7636 61.7917C30.1426 63.4903 29.6859 65.5178 29.4667 68.4403C29.1928 71.8742 30.5992 76.3309 32.444 78.0844C33.2659 78.8515 34.234 78.8698 34.855 78.8698C37.0103 78.8698 37.9784 77.0798 39.0561 74.961C40.3712 72.3673 41.5584 69.3535 41.5584 69.3535C41.5584 69.3535 40.0789 77.4999 44.0973 77.4999C45.5585 77.4999 47.038 75.6003 47.6956 74.6322C47.6956 74.6505 47.6956 74.6505 47.6956 74.6505C47.6956 74.6505 47.7321 74.5957 47.8052 74.4678C47.9513 74.2304 48.0426 74.0843 48.0426 74.0843C48.0426 74.0843 48.0426 74.066 48.0426 74.0477C48.6271 73.0249 49.9422 70.7052 51.8966 66.8512C54.4173 61.883 56.8466 55.6728 56.8466 55.6728C56.8466 55.6728 57.0657 57.1888 57.8146 59.7094C58.253 61.1889 59.1663 62.8145 59.8969 64.3853C59.3124 65.2073 58.9471 65.6639 58.9471 65.6639C58.9471 65.6639 58.9471 65.6639 58.9653 65.6822C58.4904 66.3032 57.979 66.979 57.4128 67.6366C55.4218 70.0111 53.0474 72.7326 52.7186 73.518C52.335 74.4496 52.4263 75.1254 53.1569 75.6734C53.6866 76.0752 54.6364 76.13 55.6045 76.0752C57.3945 75.9473 58.6548 75.509 59.2758 75.235C60.2439 74.888 61.3764 74.3583 62.4358 73.5728C64.3902 72.1299 65.5774 70.0659 65.4678 67.3443C65.413 65.8466 64.9199 64.3488 64.3171 62.9424C64.4997 62.6867 64.6641 62.431 64.8468 62.1752C67.9336 57.6637 70.3264 52.7138 70.3264 52.7138C70.3264 52.7138 70.5456 54.2298 71.2945 56.7504C71.6598 58.029 72.4087 59.4172 73.0662 60.7688C70.162 63.125 68.372 65.8648 67.7327 67.6549C66.582 70.9792 67.477 72.4769 69.1757 72.824C69.9428 72.9883 71.0387 72.623 71.8424 72.276C72.8653 71.9472 74.0708 71.381 75.2215 70.5408C77.1759 69.0978 79.0573 67.0886 78.9477 64.3671C78.8929 63.125 78.5641 61.9013 78.1075 60.714C80.5733 59.6912 83.7515 59.1249 87.8064 59.5998C96.5007 60.6227 98.2177 66.0475 97.8889 68.3307C97.5601 70.6138 95.7336 71.8559 95.1308 72.2395C94.528 72.623 94.3271 72.7509 94.3819 73.0249C94.455 73.4267 94.7472 73.4085 95.2587 73.3354C95.971 73.2075 99.825 71.4906 99.9894 67.2896C100.263 61.9195 95.1491 56.0563 86.1077 56.1111ZM19.0372 78.7237C16.1513 81.8653 12.1329 83.0526 10.3977 82.048C8.5346 80.9703 9.26522 76.3309 12.8087 73.0066C14.964 70.9792 17.7404 69.0978 19.5852 67.9471C20.0053 67.6914 20.6263 67.3261 21.3752 66.8694C21.503 66.7964 21.5761 66.7598 21.5761 66.7598C21.7222 66.6685 21.8683 66.5772 22.0145 66.4859C23.3113 71.2349 22.0693 75.4176 19.0372 78.7237ZM40.0424 64.4401C39.0378 66.8877 36.9373 73.1527 35.6587 72.8057C34.5628 72.5134 33.887 67.7645 35.4395 63.0702C36.2249 60.714 37.8871 57.9011 38.8551 56.8052C40.426 55.0517 42.1612 54.4672 42.5813 55.1796C43.111 56.1111 40.6634 62.9059 40.0424 64.4401ZM57.3762 72.7326C56.9561 72.9518 56.5543 73.0979 56.3717 72.9883C56.2438 72.9153 56.5543 72.623 56.5543 72.623C56.5543 72.623 58.7279 70.2851 59.5864 69.2257C60.0795 68.6047 60.664 67.874 61.285 67.0521C61.285 67.1252 61.285 67.2165 61.285 67.2896C61.285 70.0842 58.5818 71.9655 57.3762 72.7326ZM70.7465 69.6823C70.436 69.4631 70.4908 68.7325 71.5319 66.4493C71.9338 65.5543 72.8836 64.0566 74.5092 62.6136C74.6918 63.1981 74.8197 63.7643 74.8014 64.294C74.7832 67.8192 72.2625 69.1343 70.7465 69.6823Z" fill="#CD6799"/>
</g>
</g>
</svg>
